<?xml version="1.0" encoding="UTF-8"?>
<svg version="1.1" xmlns="http://www.w3.org/2000/svg" width="180" height="180">
<path d="M0 0 C3.83326648 2.95032308 5.52568934 4.52532557 6.29296875 9.375 C6.35097656 10.53515625 6.40898438 11.6953125 6.46875 12.890625 C6.53449219 14.06109375 6.60023437 15.2315625 6.66796875 16.4375 C6.72404297 17.77554688 6.72404297 17.77554688 6.78125 19.140625 C7.38710937 18.42777344 7.99296875 17.71492188 8.6171875 16.98046875 C18.18323401 6.04574174 29.04393335 -2.32869715 43.78125 -4.859375 C73.22878178 -6.79074447 73.22878178 -6.79074447 84.46875 0.078125 C87.70593464 2.96534374 89.58835172 4.75287887 90.20117188 9.16162109 C90.29192783 15.67154569 90.29192783 15.67154569 90.28222656 18.50292969 C90.28125654 20.50215349 90.32407701 22.50124083 90.3671875 24.5 C90.38905368 35.2800258 90.38905368 35.2800258 87.375 38.9921875 C83.28823437 42.37730963 80.17432597 42.4142382 75.03125 42.515625 C73.97550781 42.57169922 73.97550781 42.57169922 72.8984375 42.62890625 C68.99878732 42.69414203 66.49461551 42.3380851 63.36328125 39.91015625 C60.87426755 37.24039723 59.96885907 35.93197732 59.21875 32.453125 C58.28365865 28.91018576 58.28365865 28.91018576 55.53125 26.578125 C50.66854357 25.80451261 47.19797517 25.52948865 42.59375 27.515625 C37.69433552 32.08841185 35.61271049 38.03758248 35.34375 44.703125 C35.67502195 50.94208014 37.21097943 56.24824764 41.21875 61.078125 C45.25328367 64.32543259 48.01082519 65.72009327 53.37109375 65.58984375 C59.99006392 64.35616211 66.26415116 60.50816045 71.40625 56.265625 C75.91819385 53.42477147 79.57841979 53.04529232 84.78125 54.140625 C87.8942206 55.84773791 90.1690447 57.91621441 91.78125 61.140625 C93.1030642 74.26864331 93.1030642 74.26864331 90.60546875 79.6953125 C88.81539536 81.82289376 86.98461668 83.44395588 84.78125 85.140625 C83.95882812 85.81351562 83.13640625 86.48640625 82.2890625 87.1796875 C67.55459202 98.5828864 53.13553116 102.75738617 34.78125 101.140625 C24.32913935 99.00407277 15.92346801 92.8322444 8.78125 85.140625 C8.76707031 85.79289062 8.75289063 86.44515625 8.73828125 87.1171875 C8.38834308 93.52956795 7.46110878 96.68905201 2.78125 101.140625 C-2.06524649 103.56387324 -8.90634572 102.69471448 -14.21875 102.140625 C-16.2265625 100.91796875 -16.2265625 100.91796875 -17.59375 99.453125 C-18.46 98.69 -19.32625 97.926875 -20.21875 97.140625 C-23.46798704 97.58422651 -26.22858827 98.84670047 -29.21875 100.140625 C-38.27329979 102.7489074 -50.54369748 102.57009659 -59.0546875 98.40234375 C-59.76882812 97.98597656 -60.48296875 97.56960937 -61.21875 97.140625 C-61.99476562 96.69332031 -62.77078125 96.24601562 -63.5703125 95.78515625 C-74.67207764 88.86047665 -81.59636476 79.60906019 -85.1015625 66.953125 C-86.31798414 60.37416854 -86.62417545 53.81171652 -86.21875 47.140625 C-86.16203125 46.14546875 -86.1053125 45.1503125 -86.046875 44.125 C-84.55144599 29.66918623 -77.02223592 16.71171327 -66.21875 7.140625 C-49.08328102 -5.94999079 -19.58404145 -11.31311132 0 0 Z M-47.171875 32.2265625 C-51.10062219 39.40971968 -50.49206918 46.76941269 -48.2890625 54.390625 C-46.79408567 58.23173335 -44.86509321 60.99362226 -42.21875 64.140625 C-40.34825273 60.39963046 -41.38823989 55.72560384 -41.57421875 51.62109375 C-41.15645506 47.53068221 -40.08981142 46.01168642 -37.21875 43.140625 C-34.047012 41.554756 -30.58361178 41.76196055 -27.09375 41.578125 C-26.33964844 41.53494141 -25.58554687 41.49175781 -24.80859375 41.44726562 C-22.94553112 41.3411418 -21.08216476 41.24037499 -19.21875 41.140625 C-19.85039063 40.22667969 -20.48203125 39.31273437 -21.1328125 38.37109375 C-23.21875 35.140625 -23.21875 35.140625 -24.59375 31.453125 C-25.96329028 27.96552369 -25.96329028 27.96552369 -29.09375 26.203125 C-36.43604873 23.70674343 -42.403688 25.94122509 -47.171875 32.2265625 Z " fill="#120313" transform="translate(87.21875,43.859375)"/>
<path d="M0 0 C3.83326648 2.95032308 5.52568934 4.52532557 6.29296875 9.375 C6.35097656 10.53515625 6.40898438 11.6953125 6.46875 12.890625 C6.53449219 14.06109375 6.60023437 15.2315625 6.66796875 16.4375 C6.72404297 17.77554688 6.72404297 17.77554688 6.78125 19.140625 C7.38710937 18.42777344 7.99296875 17.71492188 8.6171875 16.98046875 C18.18323401 6.04574174 29.04393335 -2.32869715 43.78125 -4.859375 C73.22878178 -6.79074447 73.22878178 -6.79074447 84.46875 0.078125 C87.70593464 2.96534374 89.58835172 4.75287887 90.20117188 9.16162109 C90.29192783 15.67154569 90.29192783 15.67154569 90.28222656 18.50292969 C90.28125654 20.50215349 90.32407701 22.50124083 90.3671875 24.5 C90.38905368 35.2800258 90.38905368 35.2800258 87.375 38.9921875 C83.28823437 42.37730963 80.17432597 42.4142382 75.03125 42.515625 C73.97550781 42.57169922 73.97550781 42.57169922 72.8984375 42.62890625 C68.99878732 42.69414203 66.49461551 42.3380851 63.36328125 39.91015625 C60.87426755 37.24039723 59.96885907 35.93197732 59.21875 32.453125 C58.28365865 28.91018576 58.28365865 28.91018576 55.53125 26.578125 C50.66854357 25.80451261 47.19797517 25.52948865 42.59375 27.515625 C37.69433552 32.08841185 35.61271049 38.03758248 35.34375 44.703125 C35.67502195 50.94208014 37.21097943 56.24824764 41.21875 61.078125 C45.25328367 64.32543259 48.01082519 65.72009327 53.37109375 65.58984375 C59.99006392 64.35616211 66.26415116 60.50816045 71.40625 56.265625 C75.91819385 53.42477147 79.57841979 53.04529232 84.78125 54.140625 C87.8942206 55.84773791 90.1690447 57.91621441 91.78125 61.140625 C93.1030642 74.26864331 93.1030642 74.26864331 90.60546875 79.6953125 C88.81539536 81.82289376 86.98461668 83.44395588 84.78125 85.140625 C83.95882812 85.81351562 83.13640625 86.48640625 82.2890625 87.1796875 C67.55459202 98.5828864 53.13553116 102.75738617 34.78125 101.140625 C24.32913935 99.00407277 15.92346801 92.8322444 8.78125 85.140625 C8.76707031 85.79289062 8.75289063 86.44515625 8.73828125 87.1171875 C8.38834308 93.52956795 7.46110878 96.68905201 2.78125 101.140625 C-2.06524649 103.56387324 -8.90634572 102.69471448 -14.21875 102.140625 C-16.2265625 100.91796875 -16.2265625 100.91796875 -17.59375 99.453125 C-18.46 98.69 -19.32625 97.926875 -20.21875 97.140625 C-23.46798704 97.58422651 -26.22858827 98.84670047 -29.21875 100.140625 C-38.27329979 102.7489074 -50.54369748 102.57009659 -59.0546875 98.40234375 C-59.76882812 97.98597656 -60.48296875 97.56960937 -61.21875 97.140625 C-61.99476562 96.69332031 -62.77078125 96.24601562 -63.5703125 95.78515625 C-74.67207764 88.86047665 -81.59636476 79.60906019 -85.1015625 66.953125 C-86.31798414 60.37416854 -86.62417545 53.81171652 -86.21875 47.140625 C-86.16203125 46.14546875 -86.1053125 45.1503125 -86.046875 44.125 C-84.55144599 29.66918623 -77.02223592 16.71171327 -66.21875 7.140625 C-49.08328102 -5.94999079 -19.58404145 -11.31311132 0 0 Z M-69.21875 18.140625 C-79.70756889 31.34206947 -81.56639992 45.81178274 -80.21875 62.140625 C-78.62141977 72.79389355 -72.69713552 81.64435115 -64.515625 88.453125 C-56.7963343 94.12444062 -47.84660296 97.31865535 -38.21875 96.140625 C-30.24502969 94.31042865 -23.13554029 91.50159873 -16.21875 87.140625 C-16.156875 88.048125 -16.095 88.955625 -16.03125 89.890625 C-15.46222411 93.23981816 -15.46222411 93.23981816 -13.09375 95.515625 C-9.44163977 97.57986122 -7.3588513 97.73206804 -3.21875 97.140625 C-0.46545979 95.34500095 1.30752461 94.08807578 2.78125 91.140625 C2.93536106 89.1098773 3.03107453 87.07456079 3.09765625 85.0390625 C3.13955078 83.82734375 3.18144531 82.615625 3.22460938 81.3671875 C3.26392578 80.09617187 3.30324219 78.82515625 3.34375 77.515625 C3.40852539 75.5975 3.40852539 75.5975 3.47460938 73.640625 C3.58094886 70.47407152 3.68297833 67.30743747 3.78125 64.140625 C4.2659375 65.2028125 4.750625 66.265 5.25 67.359375 C11.93185465 81.62198094 18.98915426 89.04352461 33.78125 95.140625 C47.45109082 98.63897184 60.36626127 94.16797577 72.203125 87.40625 C77.55032322 84.15912536 83.92698612 79.84915276 86.78125 74.140625 C87.26961113 69.54522683 87.63404908 65.51822352 85.15625 61.515625 C82.05227698 59.71858799 80.34546093 59.78463281 76.78125 60.140625 C73.58423232 61.75679958 73.58423232 61.75679958 70.46875 63.953125 C63.32178531 68.60506782 56.53520599 72.2348695 47.78125 71.140625 C41.49395008 69.38371694 37.73673031 66.63352322 33.97265625 61.3359375 C29.48761864 53.07170427 29.06291332 41.94178645 31.7265625 32.94921875 C34.48800925 27.12239243 37.63930557 23.67506298 43.46875 20.828125 C49.37971036 19.60132191 54.61252382 20.21690829 60.15625 22.578125 C63.37757867 25.72275537 64.44909545 28.66632288 65.82421875 32.8984375 C66.67907764 35.46792732 66.67907764 35.46792732 69.78125 37.140625 C72.3855695 37.53319594 72.3855695 37.53319594 75.21875 37.515625 C76.16621094 37.54398438 77.11367187 37.57234375 78.08984375 37.6015625 C81.58402888 37.00313892 82.57395577 35.87463367 84.78125 33.140625 C85.59662969 29.2003073 85.38416473 25.21844724 85.34375 21.203125 C85.36759766 20.11837891 85.39144531 19.03363281 85.41601562 17.91601562 C85.4249703 11.54687084 85.4249703 11.54687084 82.578125 5.99609375 C72.34512326 -0.79255964 56.47039961 -1.14423672 44.6640625 0.6015625 C30.68250086 3.68840078 19.00514231 11.55245688 10.90625 23.390625 C6.79245255 30.28585523 3.78125 38.05665239 3.78125 46.140625 C2.71165039 46.12491455 1.64205078 46.1092041 0.54003906 46.09301758 C-3.43319145 46.03866449 -7.40638916 46.00425549 -11.37988281 45.97583008 C-13.09868905 45.96075567 -14.81745691 45.94029271 -16.53613281 45.91430664 C-19.00855997 45.87786335 -21.480478 45.86088542 -23.953125 45.84765625 C-24.71993591 45.83217239 -25.48674683 45.81668854 -26.27679443 45.80073547 C-29.52102603 45.7997151 -31.82760979 45.92667453 -34.70214844 47.49902344 C-36.85525134 49.8295875 -36.75272632 51.44805645 -36.71875 54.578125 C-36.5745157 57.99016756 -36.42589492 59.77812139 -34.71875 62.765625 C-31.19220533 64.70522457 -28.22816492 64.87333067 -24.21875 65.140625 C-24.34375 66.953125 -24.34375 66.953125 -25.21875 69.140625 C-28.68208939 71.65154606 -31.46512185 72.39137626 -35.65625 72.140625 C-40.47103136 71.36378633 -43.84900286 69.67843933 -47.21875 66.140625 C-53.8070127 56.96598861 -55.60369738 46.76569334 -53.82421875 35.68359375 C-52.14976091 29.34225985 -48.46872905 25.88583299 -43.21875 22.140625 C-38.78987458 19.92618729 -33.03977541 20.74671195 -28.21875 21.140625 C-22.43401884 23.41319795 -20.7116456 27.47325288 -18.296875 32.8984375 C-17.3076744 35.27226387 -17.3076744 35.27226387 -15.21875 37.140625 C-12.46221026 37.575419 -12.46221026 37.575419 -9.34375 37.578125 C-8.29445313 37.61808594 -7.24515625 37.65804687 -6.1640625 37.69921875 C-3.12928172 37.35351049 -3.12928172 37.35351049 -0.87109375 35.33203125 C1.62793606 30.50529992 1.40059329 25.99726948 1.34375 20.640625 C1.36759766 19.60808594 1.39144531 18.57554688 1.41601562 17.51171875 C1.40679569 12.74808626 1.38527422 10.00537911 -1.390625 6.03125 C-4.34429327 4.05669828 -6.5697596 3.13464128 -10.03125 2.390625 C-11.08699219 2.16246094 -12.14273438 1.93429688 -13.23046875 1.69921875 C-34.63771763 -2.30239771 -54.02420511 1.72740501 -69.21875 18.140625 Z M-47.171875 32.2265625 C-51.10062219 39.40971968 -50.49206918 46.76941269 -48.2890625 54.390625 C-46.79408567 58.23173335 -44.86509321 60.99362226 -42.21875 64.140625 C-40.34825273 60.39963046 -41.38823989 55.72560384 -41.57421875 51.62109375 C-41.15645506 47.53068221 -40.08981142 46.01168642 -37.21875 43.140625 C-34.047012 41.554756 -30.58361178 41.76196055 -27.09375 41.578125 C-26.33964844 41.53494141 -25.58554687 41.49175781 -24.80859375 41.44726562 C-22.94553112 41.3411418 -21.08216476 41.24037499 -19.21875 41.140625 C-19.85039063 40.22667969 -20.48203125 39.31273437 -21.1328125 38.37109375 C-23.21875 35.140625 -23.21875 35.140625 -24.59375 31.453125 C-25.96329028 27.96552369 -25.96329028 27.96552369 -29.09375 26.203125 C-36.43604873 23.70674343 -42.403688 25.94122509 -47.171875 32.2265625 Z " fill="#F4EBFA" transform="translate(87.21875,43.859375)"/>
<path d="M0 0 C0.91289795 0.00580078 1.8257959 0.01160156 2.76635742 0.01757812 C9.45120474 0.14616723 15.23612372 1.10883536 21.5625 3.375 C21.5625 10.305 21.5625 17.235 21.5625 24.375 C19.2525 24.375 16.9425 24.375 14.5625 24.375 C12.5625 18.375 12.5625 18.375 10.5625 12.375 C8.86480766 11.27331016 8.86480766 11.27331016 6.5625 10.375 C5.5725 9.83875 4.5825 9.3025 3.5625 8.75 C-2.27574573 6.30695726 -9.01380351 6.37105892 -15.03515625 8.13671875 C-22.92602003 11.46958776 -27.59494301 15.94486663 -31.26171875 23.6953125 C-34.72704229 34.54027852 -33.45750435 47.22619864 -28.4375 57.375 C-24.67412322 63.84974333 -19.67866559 68.96127814 -12.4375 71.375 C-5.35916963 72.10904908 0.07798501 71.93403556 6.0390625 67.859375 C8.35211524 65.6056313 9.39940682 63.49758944 9.86328125 60.3046875 C9.87456873 58.32561599 9.72158865 56.34769923 9.5625 54.375 C6.52724514 52.35149676 5.36823798 52.05375982 1.875 51.75 C1.06675781 51.67523438 0.25851563 51.60046875 -0.57421875 51.5234375 C-1.18910156 51.47445312 -1.80398437 51.42546875 -2.4375 51.375 C-2.4375 49.395 -2.4375 47.415 -2.4375 45.375 C8.1225 45.375 18.6825 45.375 29.5625 45.375 C29.5625 47.355 29.5625 49.335 29.5625 51.375 C28.75208252 51.85686768 27.94166504 52.33873535 27.10668945 52.83520508 C26.26710693 53.3433374 25.42752441 53.85146973 24.5625 54.375 C23.77986027 57.45698131 23.77986027 57.45698131 23.85546875 61.01171875 C23.82646484 62.31044922 23.79746094 63.60917969 23.76757812 64.94726562 C23.76118878 66.31900805 23.75533628 67.69075307 23.75 69.0625 C23.726858 70.44600298 23.70149325 71.8294707 23.67382812 73.21289062 C23.61480969 76.60054865 23.57863527 79.98691003 23.5625 83.375 C21.9125 83.375 20.2625 83.375 18.5625 83.375 C18.35753906 82.80910156 18.15257813 82.24320312 17.94140625 81.66015625 C17.67199219 80.92667969 17.40257812 80.19320312 17.125 79.4375 C16.85816406 78.70660156 16.59132812 77.97570312 16.31640625 77.22265625 C15.70863052 75.39194322 15.70863052 75.39194322 14.5625 74.375 C9.37018064 73.82394668 5.82896345 75.38349752 1.375 77.8125 C-6.84783257 82.16069942 -13.85248121 83.93882421 -23.16796875 81.7265625 C-32.36436896 78.39019405 -39.19693229 72.17739055 -43.4375 63.375 C-47.90417275 53.21692165 -48.35602888 39.81816071 -44.4375 29.375 C-38.93897582 17.20095125 -30.99625865 7.43149853 -18.22094727 2.5234375 C-12.07687475 0.48687502 -6.44725416 -0.0998929 0 0 Z " fill="#A357EE" transform="translate(59.4375,50.625)"/>
<path d="M0 0 C0.89009766 -0.00322266 1.78019531 -0.00644531 2.69726562 -0.00976562 C10.58805947 0.05363739 17.23640407 1.38206163 24.5625 4.3125 C24.5625 10.9125 24.5625 17.5125 24.5625 24.3125 C22.2525 24.3125 19.9425 24.3125 17.5625 24.3125 C16.94375 22.4871875 16.94375 22.4871875 16.3125 20.625 C14.39647434 15.58095106 12.31678598 12.33583349 7.5625 9.5625 C0.87281325 6.77513052 -6.7917719 5.91345913 -13.82421875 8.03125 C-22.03374011 11.90927152 -25.98970212 18.15713194 -29.4375 26.3125 C-32.29736686 34.91008718 -31.17449996 45.69186722 -27.6953125 53.87890625 C-23.51898607 61.95919 -18.1863917 67.39620277 -9.4375 70.3125 C3.24967022 71.59034448 12.66335173 67.83440818 22.8203125 60.44921875 C24.5625 59.3125 24.5625 59.3125 26.5625 59.3125 C27.015625 62.4609375 27.015625 62.4609375 26.5625 66.3125 C24.502571 68.72190873 21.98957056 70.27264315 19.3125 71.9375 C18.5795874 72.40969971 17.8466748 72.88189941 17.09155273 73.3684082 C5.54162263 80.64591084 -4.72426138 84.3396744 -18.4375 82.3125 C-22.29065322 81.2159107 -25.20466251 79.65688038 -28.4375 77.3125 C-29.22640625 76.75433594 -30.0153125 76.19617188 -30.828125 75.62109375 C-38.55395395 69.49415324 -43.28253978 61.12966185 -44.4375 51.3125 C-45.36694018 36.22697099 -41.96601452 25.55787429 -32.75 13.625 C-24.03606832 3.95047742 -12.65119488 -0.22803163 0 0 Z " fill="#A257ED" transform="translate(141.4375,50.6875)"/>
</svg>
